<svg xmlns="http://www.w3.org/2000/svg" xmlns:xlink="http://www.w3.org/1999/xlink" xml:space="preserve" width="135.46666mm" height="135.46666mm" viewBox="0 0 135.46666 135.46666"><defs><linearGradient xlink:href="#a" id="b" x1="208.47084" x2="289.22485" y1="193.36913" y2="274.12314" gradientUnits="userSpaceOnUse"/><linearGradient id="a"><stop offset="0" style="stop-color:#6a4cff;stop-opacity:1"/><stop offset="1" style="stop-color:#fcc31d;stop-opacity:1"/></linearGradient></defs><g style="display:inline"><path d="M153.758 138.656h135.467v135.467H153.758z" style="display:inline;fill:url(#b);fill-opacity:1;stroke-width:1.613" transform="translate(-153.758 -138.656)"/><path d="M230.841 168.145v25.912c-4.193-3.981-9.706-6.374-16.05-6.374-13.615 0-24.491 12.332-24.491 27.742s11.921 28.224 24.893 28.224c6.45 0 11.702-3.203 15.648-7.613v6.577h15.357v-74.468zm-12.339 32.342c7.667 0 12.724 7.244 12.724 15.142 0 7.02-4.36 14.918-12.635 14.918-6.797 0-12.915-6.183-12.915-14.943 0-8.329 5.627-15.117 12.826-15.117z" style="opacity:1;fill:#fff;stroke-width:1.57784" transform="translate(-153.758 -138.656)"/></g></svg>